<svg width="253" height="253" viewBox="0 0 253 253" fill="none" xmlns="http://www.w3.org/2000/svg">
<path d="M82.4969 122.995C71.2258 122.995 60.4163 118.517 52.4464 110.547C44.4765 102.577 39.9991 91.768 39.9991 80.4969V46.4987C39.9991 44.2444 40.8946 42.0825 42.4886 40.4886C44.0825 38.8946 46.2444 37.9991 48.4987 37.9991H56.9982C59.2524 37.9991 61.4143 37.1036 63.0083 35.5096C64.6023 33.9157 65.4978 31.7538 65.4978 29.4996C65.4978 27.2453 64.6023 25.0834 63.0083 23.4895C61.4143 21.8955 59.2524 21 56.9982 21H48.4987C41.736 21 35.2503 23.6865 30.4684 28.4684C25.6865 33.2503 23 39.736 23 46.4987V80.4969C23.0109 90.0991 25.3524 99.5553 29.8234 108.053C34.2944 116.551 40.7613 123.837 48.6687 129.284C56.2658 135.982 62.427 144.15 66.7802 153.295C71.1335 162.44 73.5886 172.372 73.9973 182.492C73.9973 198.271 80.2657 213.404 91.4236 224.562C102.581 235.72 117.715 241.988 133.494 241.988C149.274 241.988 164.407 235.72 175.565 224.562C186.723 213.404 192.991 198.271 192.991 182.492V172.802C188.609 172.059 181.039 175.266 185.684 168.417C190.328 161.568 181.304 178.728 180.261 170.519C190.771 162.111 183.845 176.713 177.636 171.243C185.911 171.243 171.427 165.773 177.636 171.243C169.361 171.243 184.76 165.049 178.551 170.519C172.342 175.989 176.608 162.31 175.565 170.519C174.522 178.728 171.348 165.953 175.992 172.802V182.492C175.992 193.763 171.515 204.572 163.545 212.542C155.575 220.512 144.765 224.989 133.494 224.989C122.223 224.989 111.414 220.512 103.444 212.542C95.4739 204.572 90.9964 193.763 90.9964 182.492C91.4267 172.359 93.9083 162.419 98.2912 153.274C102.674 144.128 108.867 135.967 116.495 129.284C124.371 123.818 130.805 116.524 135.246 108.027C139.686 99.5304 142.002 90.0841 141.994 80.4969V46.4987C141.994 39.736 139.307 33.2503 134.525 28.4684C129.743 23.6865 123.258 21 116.495 21H107.996C105.741 21 103.579 21.8955 101.985 23.4895C100.391 25.0834 99.496 27.2453 99.496 29.4996C99.496 31.7538 100.391 33.9157 101.985 35.5096C103.579 37.1036 105.741 37.9991 107.996 37.9991H116.495C118.749 37.9991 120.911 38.8946 122.505 40.4886C124.099 42.0825 124.995 44.2444 124.995 46.4987V80.4969C124.995 86.0778 123.895 91.604 121.76 96.7601C119.624 101.916 116.494 106.601 112.547 110.547C108.601 114.494 103.916 117.624 98.7601 119.76C93.604 121.895 88.0778 122.995 82.4969 122.995ZM184.492 170.519C179.983 170.519 180.824 172.135 177.636 168.947C174.448 165.759 191.163 176.902 191.163 172.394C191.163 167.885 179.567 172.999 182.755 169.811C185.943 166.623 179.552 171.243 184.06 171.243C180.872 168.055 188.569 171.243 184.06 171.243C187.248 174.431 184.492 166.011 184.492 170.519C184.492 175.027 190.147 168.871 186.959 172.059C183.771 175.247 189 170.519 184.492 170.519Z" fill="black"/>
<path d="M205.037 127.007H221.012C223.131 127.007 225.163 127.848 226.661 129.346C228.159 130.844 229 132.876 229 134.995C229 137.113 228.159 139.145 226.661 140.643C225.163 142.141 223.131 142.982 221.012 142.982H205.037L189.061 170.939H177.08L185.067 142.982H169.092L161.104 150.97H149.123L157.11 134.995L149.123 119.019H161.104L169.092 127.007H185.067L177.08 99.0496H189.061L205.037 127.007Z" stroke="black" stroke-width="7.98775" stroke-linecap="round" stroke-linejoin="round"/>
<path d="M81.006 101.007L80.7231 101.29L80.4118 101.007C66.972 88.8118 58.0875 80.7479 58.0875 72.5708C58.0875 66.9119 62.3317 62.6677 67.9906 62.6677C72.3479 62.6677 76.5921 65.4972 78.0917 69.3452H83.3545C84.8541 65.4972 89.0983 62.6677 93.4556 62.6677C99.1145 62.6677 103.359 66.9119 103.359 72.5708C103.359 80.7479 94.4742 88.8118 81.006 101.007ZM93.4556 57.0088C88.5324 57.0088 83.8072 59.3007 80.7231 62.8941C77.639 59.3007 72.9138 57.0088 67.9906 57.0088C59.2759 57.0088 52.4286 63.8278 52.4286 72.5708C52.4286 83.2378 62.0487 91.9808 76.6204 105.194L80.7231 108.929L84.8258 105.194C99.3975 91.9808 109.018 83.2378 109.018 72.5708C109.018 63.8278 102.17 57.0088 93.4556 57.0088Z" fill="#DC0000"/>
</svg>
